<svg width="91" height="91" xmlns="http://www.w3.org/2000/svg">

 <g>
  <title>background</title>
  <rect fill="none" id="canvas_background" height="402" width="582" y="-1" x="-1"/>
 </g>
 <g>
  <title>Layer 1</title>
  <path id="svg_2" fill="#ffffff" d="m58.104,68.71c0,8.656 -7.018,15.674 -15.674,15.674l-2.152,0c-8.656,0 -15.674,-7.018 -15.674,-15.674l0,-50.728c0,-8.656 7.018,-15.674 15.674,-15.674l2.152,0c8.656,0 15.674,7.018 15.674,15.674l0,50.728z"/>
  <path id="svg_5" fill="#454B53" d="m64.541,70.965c-1.387,0 -2.512,-1.125 -2.512,-2.514l0,-54.959c0,-1.388 1.125,-2.513 2.512,-2.513c1.389,0 2.514,1.125 2.514,2.513l0,54.959c0,1.389 -1.125,2.514 -2.514,2.514z"/>
  <path id="svg_6" fill="#454B53" d="m26.098,70.966c-1.387,0 -2.512,-1.125 -2.512,-2.513l0,-53.129c0,-1.388 1.125,-2.513 2.512,-2.513c1.389,0 2.514,1.125 2.514,2.513l0,53.129c-0.001,1.388 -1.126,2.513 -2.514,2.513z"/>
  <path id="svg_7" fill="#454B53" d="m52.891,71.879c-1.387,0 -2.512,-1.125 -2.512,-2.514l0,-54.041c0,-1.388 1.125,-2.513 2.512,-2.513c1.389,0 2.514,1.125 2.514,2.513l0,54.041c-0.001,1.389 -1.126,2.514 -2.514,2.514z"/>
  <path id="svg_8" fill="#454B53" d="m52.895,18.752c-1.389,0 -2.514,-1.125 -2.514,-2.514c0,-5.998 -4.885,-10.879 -10.889,-10.879c-6,0 -10.881,4.881 -10.881,10.879c0,1.389 -1.125,2.514 -2.514,2.514c-1.387,0 -2.512,-1.125 -2.512,-2.514c0,-8.77 7.135,-15.904 15.906,-15.904c8.775,0 15.914,7.135 15.914,15.904c0.001,1.389 -1.124,2.514 -2.51,2.514z"/>
  <path id="svg_9" fill="#454B53" d="m45.322,90.857c-11.986,0 -21.737,-10.051 -21.737,-22.406c0,-1.387 1.125,-2.512 2.513,-2.512s2.513,1.125 2.513,2.512c0,9.584 7.497,17.381 16.712,17.381c9.212,0 16.707,-7.797 16.707,-17.381c0,-1.387 1.125,-2.512 2.512,-2.512c1.389,0 2.514,1.125 2.514,2.512c-0.001,12.356 -9.751,22.406 -21.734,22.406z"/>
  <path id="svg_10" fill="#454B53" d="m38.235,71.881c-1.388,0 -2.513,-1.125 -2.513,-2.514l0,-47.633c0,-1.387 1.125,-2.512 2.513,-2.512s2.513,1.125 2.513,2.512l0,47.633c0,1.389 -1.125,2.514 -2.513,2.514z"/>
  <path id="svg_11" fill="#454B53" d="m45.566,79.207c-5.428,0 -9.844,-4.414 -9.844,-9.842c0,-1.387 1.125,-2.512 2.513,-2.512s2.513,1.125 2.513,2.512c0,2.656 2.162,4.816 4.818,4.816c2.654,0 4.813,-2.16 4.813,-4.816c0,-1.387 1.125,-2.512 2.512,-2.512c1.389,0 2.514,1.125 2.514,2.512c-0.001,5.428 -4.415,9.842 -9.839,9.842z"/>
 </g>
</svg>