<?xml version="1.0" ?><!DOCTYPE svg  PUBLIC '-//W3C//DTD SVG 1.1//EN'  'http://www.w3.org/Graphics/SVG/1.1/DTD/svg11.dtd'><svg enable-background="new 0 0 24 24" height="24px" id="Layer_1" version="1.1" viewBox="0 0 24 24" width="24px" xml:space="preserve" xmlns="http://www.w3.org/2000/svg" xmlns:xlink="http://www.w3.org/1999/xlink"><path d="M23.4,8.4L12.7,0.3c-0.4-0.4-1-0.4-1.4,0l-10.6,8c0,0-0.7,0.5-0.7,1.3C0,10.8,0,23,0,23c0,0.6,0.4,1,1,1h22c0.6,0,1-0.4,1-1  c0,0,0-12.4,0-13.5C24,8.9,23.4,8.4,23.4,8.4z M2,11.6l6.4,4.9L2,21.4V11.6z M12,15.5l8.9,6.5H3.1L12,15.5z M22,21.4l-6.4-4.9  l6.4-4.9V21.4z M22,10.2l-7.5,5.5l-1.8-1.4c-0.4-0.4-1-0.4-1.4,0l-1.8,1.4L2,10.2V9.5l10-7.3l10,7.3V10.2z"/></svg>