<svg width="32" height="32" xmlns="http://www.w3.org/2000/svg">

 <title/>
 <g>
  <title>background</title>
  <rect fill="none" id="canvas_background" height="402" width="582" y="-1" x="-1"/>
 </g>
 <g>
  <title>Layer 1</title>
  <rect stroke="#4c4c4c" stroke-width="2px" stroke-linejoin="round" stroke-linecap="round" fill="#4c4c4c" id="svg_1" y="7" x="5" width="22.906508" height="18" class="cls-1"/>
  <polyline stroke="#ffffff" stroke-linejoin="round" stroke-linecap="round" fill="none" id="svg_2" points="5.469941139221191,23.90650936961174 10.204763412475586,19.096509903669357 12.970844268798828,21.90650936961174 19.251127243041992,15.536509484052658 26.8799991607666,23.28650853037834 " class="cls-2"/>
  <circle stroke="#000000" stroke-opacity="0" fill="#4c4c4c" id="svg_3" r="2.5" cy="13" cx="13" class="cls-3"/>
  <line stroke="#ffffff" stroke-linecap="round" stroke-linejoin="round" id="svg_5" y2="23.868216" x2="27.331362" y1="23.868216" x1="5.46183" stroke-width="null" fill="none"/>
  <path d="m9.881062,20.92206c-0.113314,0 -0.19189,0.051989 -0.339941,0.113314c-0.209376,0.086727 -0.19189,0.051989 -0.339941,0.113314c-0.104689,0.043364 -0.078576,0.165302 -0.226627,0.226627c-0.104689,0.043364 -0.226627,0.113314 -0.339941,0.226627c0,0 -0.113314,0.113314 -0.226627,0.226627c0,0 -0.033188,0.146502 -0.113313,0.226627c-0.080125,0.080126 -0.078576,0.165302 -0.226627,0.226627c-0.104688,0.043364 -0.113314,0 -0.226627,0.113314c0,0 0,0 -0.113314,0.113314c0,0 -0.113314,0 -0.113314,0c0,0.113314 -0.146502,0.033188 -0.226627,0.113314c-0.080125,0.080126 0,0.113314 -0.113314,0.113314c0,0 -0.113314,0 -0.113314,0.113314c0,0 -0.113314,0 -0.113314,0c0,0 -0.113314,0 -0.113314,0c0,0 0,0.113314 0,0.113314c0.113314,0 0.113314,0 0.339941,0c0.113314,0 0.339941,0 0.566568,0c0.226627,0 0.453255,0 0.679881,0c0.339941,0 0.566568,0 0.906509,0c0.339941,0 0.679882,0 0.679882,0c0.226627,0 0.226627,0 0.339941,0c0.113314,0 0.226627,0 0.339941,0c0.113314,0 0.226627,0 0.339941,0c0,0 0.113314,0 0.226627,0c0.113314,0 0.226627,-0.113314 0.339941,-0.113314c0,0 0.113313,0 0,0c0,0 -0.243878,0.086727 -0.453255,0c-0.148051,-0.061325 -0.339941,-0.113314 -0.566568,-0.113314c-0.113314,0 -0.226627,-0.113314 -0.339941,-0.113314c-0.113314,0 -0.226627,0 -0.226627,-0.113314c0,0 -0.113314,-0.113314 -0.113314,-0.339941c0,-0.226627 0,-0.566568 0,-0.906509c0,-0.226627 0.113314,-0.339941 0.113314,-0.453255c0,0 0,-0.113312 0,-0.113312c0,0 0,-0.113316 0,-0.113316c0,-0.113312 0,-0.113312 0,-0.113312c0,-0.113314 0,-0.113314 0,-0.113314c0,0 0,-0.113314 0,-0.113314c0,0 -0.113314,0 -0.113314,0c0,0.113314 0,0.113314 0,0.226627c0,0.113312 -0.168413,0.206656 -0.226627,0.453253c-0.026034,0.110283 -0.226627,0.339941 -0.226627,0.566568c0,0.113314 -0.113314,0.113314 -0.113314,0.113314c0,0.113314 0,0.113314 0,0.113314c0,0 -0.113314,0.113314 -0.113314,0.113314c-0.113314,0.113314 -0.113314,0.113314 -0.113314,0.226627c0,0 -0.033189,0.033188 -0.113314,0.113314c-0.080125,0.080126 0,0.113314 0.113314,0.113314c0.226627,0 0.339941,0 0.453255,0c0.113314,0 0.226627,0 0.226627,0c0,-0.339941 0,-0.453255 0,-0.679882c0,0 0,-0.113314 0,-0.339941c0,-0.113314 0,-0.339941 0,-0.453255c0,-0.113312 0,-0.226627 0,-0.453253c0,0 0,-0.113314 0,-0.113314c0,0 0,0 0,0c-0.113314,0 -0.226627,0 -0.226627,0c-0.113314,0.113314 -0.146503,0.259815 -0.226627,0.339939c-0.080125,0.080126 -0.113314,0 -0.226627,0.113316c0,0 0,0 0,0c0.113314,-0.113316 0.31997,-0.168415 0.566568,-0.226627c0.110283,-0.026033 0.226627,-0.113314 0.226627,-0.113314c0.113314,0 0.113314,0 0.113314,0c0.113314,0 0.113314,0 0.113314,0.113314c0,0.113312 0.033188,0.146502 0.113314,0.226627c0.080125,0.080126 0.033189,0.1465 0.113314,0.226625c0.080125,0.080126 0.113314,0.113314 0.226627,0.113314c0,0 0.078576,0.165302 0.226627,0.226627c0.104689,0.043364 0.235252,0.06995 0.339941,0.113314c0.148051,0.061325 0.146502,0.146502 0.226627,0.226627c0.080125,0.080126 0.278616,-0.034737 0.33994,0.113314c0.043363,0.104689 0.146502,0.033188 0.226627,0.113314c0.080125,0.080126 0,0.113314 0,0.113314c0.113314,0 0.113314,0.113314 0.113314,0.113314c0,0 0,0 0,0c0,-0.113314 -0.19179,-0.361017 -0.339941,-0.566568c-0.093699,-0.130001 -0.226626,-0.226627 -0.33994,-0.339941c-0.113314,-0.113314 -0.165302,-0.078575 -0.226627,-0.226627c-0.043364,-0.104689 -0.033188,-0.259815 -0.113314,-0.339941c-0.080125,-0.080126 -0.226627,-0.113312 -0.226627,-0.113312c0,-0.113314 -0.033189,-0.146502 -0.113314,-0.226627c-0.080125,-0.080126 -0.113314,0 -0.226627,-0.113314c0,0 -0.113314,0 -0.113314,0c-0.113314,-0.113314 -0.113314,-0.113314 -0.113314,-0.113314c-0.113314,0 -0.113314,0 -0.113314,0c-0.113314,0 -0.113314,-0.113314 -0.113314,-0.113314c0,0 0,0 0,0c0,0.339941 0.039227,0.533194 0.226627,0.793196c0.148151,0.205549 0.113314,0.339939 0.113314,0.453253c0,0.113314 0.113314,0.113314 0.113314,0.226627c0,0 0.033189,0.033188 0.113314,0.113314c0.080125,0.080126 0.235252,0.06995 0.339941,0.113314c0.148051,0.061325 0.113314,0.113314 0.226627,0.226627c0.113314,0.113314 0.339941,0.226627 0.453255,0.339941c0.113313,0.113314 0.226626,0.226627 0.226626,0.226627c0,0 -0.113314,0 -0.33994,0c-0.226627,0 -0.453255,0 -0.679882,0c-0.113314,0 -0.339941,0 -0.566568,0c-0.226627,0 -0.339941,0 -0.453255,0c-0.113314,0 -0.113314,0 -0.226627,0c0,0 0,0 0.113314,0c0.339941,0 1.473078,0 1.813019,0c1.019822,0 1.359763,0 1.58639,0c0.113314,0 0.226627,0 0.453255,0c0.226627,0 0.453255,0 0.679882,0c0.113314,0 0.226627,0 0.339941,0c0.226627,0 0.226627,0 0.339941,0c0,0 -0.008713,-0.03043 -0.453255,0.113314c-0.580613,0.187744 -1.249307,0.213181 -1.813019,0.339941c-0.455822,0.102499 -0.793196,0.113314 -1.019822,0.113314c-0.226627,0 -0.453255,0 -0.566568,0c-0.226627,0 -0.226627,0 -0.339941,0c0,0 -0.113314,0 0.113314,0c0.453255,0 1.133136,0 1.699704,0c0.793196,0 1.24645,0 1.699705,0c0.453255,0 0.906508,0 1.246449,0c0.226627,0 0.453255,0 0.566568,0c0.226627,0 0.339941,0.113314 0.566568,0.113314c0.226627,0 0.339941,0 0.453255,0c0.113314,0 0.113314,0 0.339941,0c0.113314,0 0.339941,0 0.566568,0c0.113314,0 0.226627,0 0.453255,0c0.113314,0 0.339941,0 0.566568,0c0.226627,0 0.453255,0 0.679882,0c0.226627,0 0.457642,-0.058861 0.793194,-0.113314c0.353703,-0.057398 0.566568,-0.113314 0.793196,-0.113314c0.226627,0 0.339941,-0.113314 0.339941,-0.113314c0.226627,0 0.339941,0 0.453255,0c0.113314,0 0.113314,0 0.339941,0c0.113314,0 0.226627,0 0.339941,0c0.113314,0 0.226627,0 0.453255,0c0.226627,0 0.339941,0 0.453255,0c0.226627,0 0.339941,0 0.566568,0c0,0 0.226627,0 0.339941,0c0.113314,0 0.226627,0 0.453255,0c0.113314,0 0.113314,0 0.339941,0c0,0 0.113314,0 0.226627,0c0,0 0,0 0,0c0.113314,0 0,0 -0.113314,0c-0.113314,0 -0.259815,-0.033188 -0.339941,-0.113314c-0.080126,-0.080126 -0.113314,-0.113314 -0.226627,-0.226627c-0.226627,-0.226627 -0.278616,-0.191889 -0.339941,-0.339941c-0.043364,-0.104689 -0.165302,-0.078575 -0.226627,-0.226627c-0.043364,-0.104689 -0.06995,-0.348566 -0.113314,-0.453255c-0.061325,-0.148052 -0.146502,-0.259815 -0.226627,-0.339941c-0.080126,-0.080126 -0.078575,-0.165302 -0.226627,-0.226627c-0.104689,-0.043364 -0.113314,-0.113312 -0.226627,-0.113312c0,0 -0.078577,-0.165304 -0.226627,-0.226627c-0.104689,-0.043364 -0.226627,0 -0.339941,-0.113314c-0.113314,-0.113314 -0.20994,-0.132927 -0.339941,-0.226627c-0.205549,-0.148151 -0.226627,-0.113314 -0.339941,-0.226627c0,0 -0.113314,-0.113314 -0.226627,-0.113314c0,0 0,-0.113314 -0.113314,-0.226627c0,0 -0.113314,-0.113314 -0.113314,-0.113314c0,-0.113314 -0.113314,-0.113314 -0.226627,-0.226627c0,0 -0.008625,-0.06995 -0.113314,-0.113314c-0.148052,-0.061325 -0.226627,-0.226627 -0.226627,-0.226627c-0.113314,-0.113314 -0.113314,-0.226627 -0.113314,-0.226627c-0.113314,-0.113314 -0.226627,-0.226627 -0.226627,-0.226627c-0.113314,-0.113314 -0.113314,-0.226627 -0.226627,-0.339941c0,0 -0.113314,-0.113314 -0.226627,-0.339941c0,0 -0.051989,-0.078575 -0.113314,-0.226627c-0.043364,-0.104689 -0.051989,-0.078575 -0.113314,-0.226627c-0.043364,-0.104689 -0.113314,-0.113314 -0.113314,-0.113314c0,-0.113314 0,-0.113314 -0.113314,-0.113314c0,0 0,-0.113314 -0.113312,-0.113314c0,0 0,0 -0.113314,0c0,0 -0.113314,-0.113314 -0.113314,-0.113314c-0.113316,0 -0.113316,-0.113314 -0.113316,-0.113314c-0.113312,0 -0.033186,-0.033188 -0.113312,-0.113314c-0.080126,-0.080126 -0.113314,0 -0.113314,0c-0.113314,-0.113314 -0.113314,-0.113314 -0.226627,-0.113314c0,0 0,0 0,0c-0.113314,0 -0.113314,0 -0.113314,0c-0.113314,0 -0.113314,0 -0.226627,0c0,0 0.034739,0.165302 -0.113314,0.226627c-0.104689,0.043364 -0.078575,0.051989 -0.226627,0.113314c-0.104689,0.043364 -0.226627,0.113314 -0.339941,0.226627c-0.226627,0.226627 -0.305103,0.247705 -0.453255,0.453255c-0.0937,0.130001 -0.183264,0.121939 -0.226627,0.226627c-0.061325,0.148052 -0.146502,0.146502 -0.226627,0.226627c-0.080126,0.080126 -0.165302,0.078575 -0.226627,0.226627c-0.043364,0.104689 -0.033188,0.259815 -0.113314,0.339941c-0.080126,0.080126 -0.167055,0.130238 -0.226627,0.226627c-0.133207,0.215536 -0.296577,0.235252 -0.339941,0.339941c-0.061325,0.148052 -0.183264,0.121939 -0.226627,0.226627c-0.061325,0.148052 -0.113314,0.113314 -0.226627,0.226627c-0.113314,0.113314 -0.113314,0.113314 -0.226627,0.226627c-0.113314,0.113314 -0.167055,0.130238 -0.226627,0.226627c-0.133208,0.215536 -0.259816,0.259815 -0.339941,0.339941c-0.160249,0.16025 -0.237719,0.206734 -0.453254,0.339941c-0.096391,0.059572 -0.27409,0.160774 -0.453255,0.339939c-0.179165,0.179165 -0.134391,0.305103 -0.339941,0.453255c-0.130001,0.0937 -0.226627,0.226627 -0.226627,0.226627c0,0.113314 -0.113314,0.226627 -0.113314,0.226627c0,0.113314 -0.033189,0.033188 -0.113314,0.113314c-0.080125,0.080126 0,0.113314 0,0.113314c0.113314,0 0.226627,0 0.226627,0c0.226627,0 0.339941,0 0.566568,0c0.339941,0 0.453255,0 0.679882,0c0.226626,0 0.453254,0 0.679881,0c0.113314,0 0.235252,-0.043364 0.339941,0c0.148052,0.061325 0.226627,0.113314 0.339941,0.113314c0.226627,0 0.339941,0 0.566568,0c0.113314,0 0.339941,0 0.566568,0c0.226627,0 0.453255,0 0.793196,0c0.339941,0 0.65991,0.055099 0.906509,0.113314c0.330847,0.078102 0.679882,0 1.019821,0c0.113314,0 0.339941,0 0.339941,0c0.113314,0 0.226627,0 0.339941,0c0.113314,0 0.113314,0 0.226627,0c0.113314,0 0.339941,0 0.453255,0c0.113314,0 0.191889,0.051989 0.339941,0.113314c0.104689,0.043364 0.226627,0 0.339941,0c0.113314,0 0.226627,0 0.226627,0c0.113314,0 0.226627,0 0.226627,0c0.113314,0 0.113314,0 0.226627,0c0.113314,0 0.226627,0 0.226627,0c0.113314,0 0.226627,0 0.339941,0c0,0 0.113314,0 0.226627,0c0.113314,0 0.226627,0 0.339941,0c0,0 0.146502,-0.080126 0.226627,0c0.080126,0.080126 0.113314,0.113314 0.113314,0.113314c0.113314,0 0.226627,0 0.339941,0c0,0 0.113314,0.113314 0.226627,0.113314c0.113314,0 0.113314,0 0.226627,0c0.113314,0 0.226627,0 0.339941,0c0,0 0.113314,0 0.226627,0c0.113314,0 0.113314,0 0.226627,0c0,0 0,0 0.113314,0c0,0 0,0 0,0c0.113314,0 0.110283,0.139347 0,0.113314c-0.246599,-0.058214 -0.468325,-0.177847 -0.906509,-0.339941c-0.475277,-0.175816 -1.019823,-0.339941 -1.473078,-0.566568c-0.453255,-0.226627 -0.789097,-0.466383 -1.133137,-0.566568c-0.448572,-0.130625 -0.679882,-0.226627 -1.019823,-0.339941c-0.339941,-0.113314 -0.65991,-0.168413 -0.906509,-0.226627c-0.330847,-0.078102 -0.669432,-0.169542 -1.133135,-0.226627c-0.449858,-0.055382 -1.019823,0 -1.473078,0c-0.566568,0 -1.019823,0 -1.473078,0c-0.453255,0 -1.019823,0 -1.58639,0c-0.339941,0 -0.566568,0 -0.679882,0c-0.113314,0 -0.113314,0 -0.113314,0c0.113314,0 0.226627,0 0.453255,0c0.226627,0 0.539495,-0.160439 0.906508,-0.339939c0.321893,-0.157433 0.587646,-0.19179 0.793196,-0.339941c0.130001,-0.0937 0.306566,-0.265856 0.566568,-0.453255c0.205549,-0.148151 0.339941,-0.226627 0.453255,-0.339941c0.226627,-0.226627 0.453255,-0.453255 0.566568,-0.566568c0.113314,-0.113314 0.226627,-0.226627 0.226627,-0.226627c0.113314,-0.113314 0.033188,-0.146502 0.113314,-0.226627c0.080126,-0.080126 0.113314,0 0.113314,0c0.113314,-0.113314 0.033188,-0.146502 0.113314,-0.226627c0.080126,-0.080126 0.146502,0.080126 0.226627,0c0.080126,-0.080126 0,-0.226627 0.113314,-0.226627c0,0 0,-0.113314 0,-0.113314c0,0 0.08728,-0.110283 0.113314,0c0.058214,0.246599 -0.407249,0.284758 -0.679882,0.453255c-0.304813,0.188385 -0.76334,0.597593 -1.586391,1.359764c-0.76652,0.709822 -1.669977,1.726601 -2.4929,2.606213c-0.65688,0.702131 -0.958498,0.871771 -1.019823,1.019823c-0.043364,0.104689 -0.113314,0.113314 0,0.113314c0,0 0.113314,0 0.113314,0c0.113314,0 0.183264,-0.121939 0.226627,-0.226627c0.061325,-0.148052 0.361018,-0.305103 0.566568,-0.453255c0.260003,-0.187399 0.453255,-0.453255 0.679882,-0.679882c0.113314,-0.113314 0.307547,-0.250612 0.566567,-0.566568c0.101597,-0.123928 0.305104,-0.247704 0.453255,-0.453253c0.0937,-0.130003 0.305102,-0.247705 0.453255,-0.453255c0.187399,-0.260002 0.453255,-0.453255 0.679882,-0.679882c0.113314,-0.113314 0.247705,-0.305103 0.453255,-0.453255c0.130001,-0.0937 0.226627,-0.226627 0.339941,-0.339941c0.113314,-0.113314 0.146502,-0.146502 0.226627,-0.226627c0.080126,-0.080126 0.226627,-0.113314 0.226627,-0.113314c0.113314,-0.113314 0.167055,-0.130238 0.226627,-0.226627c0.133207,-0.215536 0.235252,-0.06995 0.339941,-0.113314c0.148052,-0.061325 0.146502,-0.146502 0.226627,-0.226627c0.080126,-0.080126 0.226627,0 0.339941,-0.113314c0,0 0.033188,0.080126 0.113314,0c0.080126,-0.080126 0.113314,-0.113314 0.226627,-0.113314c0,0 0,0 0,-0.113314c0,0 0,0 -0.113314,0.113314c-0.113314,0.113314 -0.361019,0.078476 -0.566568,0.226627c-0.130001,0.0937 -0.375069,0.26487 -0.679882,0.453255c-0.272633,0.168497 -0.305103,0.361019 -0.453255,0.566568c-0.0937,0.130001 -0.356865,0.280369 -0.453255,0.339941c-0.215536,0.133207 -0.113314,0.339941 -0.226627,0.453255c0,0 -0.06995,0.235252 -0.113314,0.339941c-0.061325,0.148052 -0.026587,0.243879 -0.113314,0.453255c-0.061325,0.14805 -0.183264,0.348564 -0.226627,0.453253c-0.061325,0.148052 -0.113314,0.226627 -0.113314,0.226627c0,0.113314 -0.113314,0.226627 -0.113314,0.226627c0,0.113314 0.096626,0.0937 0.226627,0c0.205549,-0.148151 0.504301,-0.277674 0.793196,-0.566568c0.288893,-0.288893 0.679882,-0.793194 0.906509,-1.019821c0.113314,-0.113314 0.19179,-0.247705 0.339941,-0.453255c0.0937,-0.130001 0.191889,-0.39193 0.339941,-0.453255c0.104689,-0.043364 0.146502,-0.146502 0.226627,-0.226627c0.080126,-0.080126 0.226627,-0.113314 0.226627,-0.113314c0.113314,0 0.146502,-0.03319 0.226625,-0.113314c0.080126,-0.080126 0.113316,-0.113314 0.113316,-0.113314c0.113314,-0.113314 0.113314,-0.113314 0.226627,-0.113314c0.113312,0 0.113312,0 0.226625,0c0,0 -0.326178,0.055916 -0.67988,0.113314c-0.223701,0.036303 -0.679882,0.226627 -1.133137,0.453255c-0.226627,0.113314 -0.583677,0.162563 -0.793196,0.453255c-0.066256,0.091925 -0.320047,0.237719 -0.453255,0.453255c-0.059572,0.09639 -0.130238,0.280369 -0.226627,0.339941c-0.215536,0.133207 -0.168413,0.206656 -0.226627,0.453255c-0.026033,0.110281 -0.069952,0.235252 -0.113314,0.339939c-0.061325,0.148052 -0.200594,0.229658 -0.226627,0.339941c-0.058214,0.246599 -0.259815,0.259815 -0.339941,0.339941c-0.080125,0.080126 -0.113314,0.226627 -0.113314,0.339941c0,0 0,0 0,0c0,0 0.113314,0 0.226627,0c0.226627,0 0.566568,0 1.019823,0c0.679882,0 1.133137,0 1.473078,0c0.226627,0 0.566568,0 0.793196,0c0.339941,0 0.67988,0 0.906507,0c0.339941,0 0.453255,0 0.793196,0c0.339941,0 0.679882,0 1.019823,0c0.339941,0 0.566568,0 0.679882,0c0.113314,0 0.113314,0 0.226627,0c0.113314,0 0.225164,0.01815 0.113314,0c-0.353703,-0.057398 -0.782747,-0.282856 -1.24645,-0.339941c-0.337395,-0.041534 -0.793196,0 -1.133137,-0.113314c-0.339941,-0.113314 -0.679882,-0.113314 -0.906507,-0.113314c-0.339941,0 -0.679882,-0.113314 -0.906509,-0.113314c-0.226627,0 -0.552807,-0.055916 -0.906509,-0.113314c-0.111851,-0.01815 -0.339941,0 -0.339941,0c0,0 -0.113314,0 -0.113314,0c0,-0.113314 0,-0.113314 0.339941,-0.113314c0.679882,0 1.586391,0 2.83284,0c1.133137,0 1.813019,0 2.266273,0c0.226627,0 0.339941,0 0.453255,0c0.113314,0 0.226627,0 0.339941,0c0,0 0.113314,0 0.226627,0c0,0 0.113314,0 0,0c-0.113314,0 -0.357191,0.086725 -0.566568,0c-0.296103,-0.122648 -0.375069,-0.151556 -0.679882,-0.339941c-0.136316,-0.084248 -0.191889,-0.278614 -0.339941,-0.339939c-0.209377,-0.086727 -0.305202,-0.165302 -0.453255,-0.226627c-0.104689,-0.043364 -0.235252,-0.06995 -0.339941,-0.113314c-0.148052,-0.061325 -0.121939,-0.183264 -0.226627,-0.226627c-0.148052,-0.061325 -0.121939,-0.06995 -0.226627,-0.113314c-0.148052,-0.061325 -0.078575,-0.165302 -0.226627,-0.226627c-0.104689,-0.043364 -0.226627,-0.113314 -0.226627,-0.113314c-0.113314,0 -0.226627,-0.113314 -0.226627,-0.113314c-0.113314,-0.113314 -0.113314,-0.113314 -0.113314,-0.113314c0,0 0,0.226627 0,0.453255c0,0.339941 0.113314,0.679882 0.226627,0.906509c0.113314,0.226625 0.183266,0.348566 0.226627,0.453253c0.061325,0.148052 0.278616,0.191889 0.339941,0.339941c0.043364,0.104689 0.113314,0.113314 0.226627,0.226627c0,0 0.086727,-0.130564 0,-0.339941c-0.061325,-0.148052 -0.265856,-0.306564 -0.453255,-0.566566c-0.148151,-0.205549 -0.379169,-0.41988 -0.566568,-0.679882c-0.148151,-0.205549 -0.339941,-0.453255 -0.453253,-0.566568c-0.113314,-0.113314 -0.226627,-0.226627 -0.226627,-0.226627c-0.113316,0 -0.113316,0 -0.113316,0c-0.113312,0 -0.113312,0 -0.226625,0c0,0 0,0.113314 0,0.113314c0,0.339941 -0.077011,0.456181 -0.113314,0.679882c-0.057398,0.353703 -0.174559,0.57263 -0.226627,0.793194c-0.058214,0.246599 -0.113314,0.226627 -0.113314,0.339941c0,0 0.051989,0.034739 0.113314,-0.113314c0.043362,-0.104687 0.06995,-0.121937 0.113314,-0.226627c0.061325,-0.14805 0.183264,-0.121937 0.226627,-0.226625c0.061325,-0.148052 0.226625,-0.226627 0.453255,-0.453255c0.113314,-0.113314 0.226625,-0.113314 0.339939,-0.226627c0,0 0.113314,-0.113314 0.113314,-0.113314c0,0 0,0 0,0c0.113314,0.113314 0.205399,0.363375 0.453255,0.566568c0.315956,0.259022 0.523205,0.461878 0.566568,0.566568c0.12265,0.296101 0.296577,0.23525 0.339941,0.339939c0.061325,0.148052 0.226627,0.113314 0.226627,0.226627c0,0 0.113314,0.113314 0.113314,0.113314c0,0 0.113314,0 0.113314,0c0,0 -0.113314,0 -0.113314,0l0,0l0,0" id="svg_6" fill-opacity="null" stroke-opacity="null" stroke-width="null" stroke="#ffffff" fill="none"/>
  <path d="m10.900885,21.488628c0,-0.113314 0,-0.113314 0,-0.226627c0,-0.113314 0,-0.339941 0,-0.339941c-0.113314,-0.113314 -0.113314,-0.113314 -0.113314,-0.113314c0,-0.113312 -0.033189,-0.146502 -0.113314,-0.226627c-0.080124,-0.080124 -0.033189,-0.033186 -0.113314,-0.113312c-0.080125,-0.080126 0,-0.113314 0,-0.113314c0,-0.113314 0,-0.113314 0,-0.113314c0,-0.113314 0,-0.339941 0,-0.339941c-0.113314,-0.113314 -0.113314,-0.226627 -0.113314,-0.226627l0,0l-0.113314,0" id="svg_7" fill-opacity="null" stroke-opacity="null" stroke-width="null" stroke="#ffffff" fill="none"/>
  <path d="m23.931953,22.961706c0,0 -0.113314,0 -0.453255,0c-0.113314,0 -0.339941,0 -0.566568,0c-0.339941,0 -0.453255,0 -0.566568,0c-0.113314,0 -0.339941,0 -0.339941,0c-0.113314,0 -0.339941,0 -0.453255,0c-0.113314,0 -0.339941,0 -0.453255,0c-0.226627,0 -0.339941,0 -0.566568,0c-0.113314,0 -0.226627,0 -0.453255,0c-0.113312,0 -0.113312,0 -0.226625,0c-0.226629,0 -0.339941,0 -0.339941,0c-0.113314,0 -0.339941,-0.113314 -0.339941,-0.113314c-0.113314,0 -0.226627,0 -0.226627,0c-0.113314,0 -0.226627,0 -0.453255,0c-0.113314,0 -0.339941,0 -0.453255,0c-0.113314,0 -0.226627,0 -0.226627,0c0,0.113314 -0.113314,0.113314 -0.113314,0.226627c0,0 0,0 0.113314,0c0.113314,0 0.113314,0 0.226627,0c0.113314,0 0.305202,-0.051989 0.453255,-0.113314c0.104689,-0.043364 0.191889,-0.051989 0.339941,-0.113314c0.209377,-0.086727 0.348566,-0.06995 0.453255,-0.113314c0.148052,-0.061325 0.226627,-0.113314 0.339939,-0.113314c0.113316,0 0.226629,0 0.339943,0c0.113312,0 0.113312,0 0.339939,0c0.113314,0 0.453255,0 0.453255,0c0.113314,0 0.566568,0 0.679882,0c0.566568,0 0.906509,0 1.24645,0c0.113314,0 0.226627,0 0.453255,0c0.113314,0 0.078575,0.051989 0.226627,0.113314c0.104689,0.043364 0.226627,0 0.226627,0c0.226627,0.113314 0.339941,0.113314 0.453255,0.113314c0.113314,0 0.191889,0.051989 0.339941,0.113314c0.104689,0.043364 0.339941,0.113314 0.453255,0.113314c0.113314,0 0.229658,-0.026033 0.339941,0c0.246599,0.058214 0.339941,0.113314 0.453255,0.113314c0.113314,0 0.339941,0 0.339941,0c0.113314,0 0.226627,0 0.226627,0c0.113312,0 0.113312,0.113314 0.113312,0.113314c0,0 0.113316,0 0.113316,0c0,0 0.113312,0.113314 0.113312,0.113314c0,0 -0.226627,0 -0.453253,0c-0.226627,0 -0.453255,0 -0.679882,0c-0.113314,0 -0.566568,0 -0.679882,0c-0.226627,0 -0.339941,0 -0.453255,0c-0.113314,0 -0.226627,0 -0.339941,0c-0.113314,0 -0.305202,-0.051989 -0.453255,-0.113314c-0.104689,-0.043364 -0.226627,0 -0.339941,0c-0.113314,0 -0.226627,0 -0.339941,0c-0.113314,0 -0.226627,0 -0.339941,0c-0.113314,0 -0.339941,0 -0.566568,0c-0.226627,0 -0.339941,0 -0.453255,0c0,0 -0.113314,0 -0.113314,0l0,0" id="svg_8" fill-opacity="null" stroke-opacity="null" stroke-width="null" stroke="#ffffff" fill="none"/>
  <polyline stroke-linecap="round" id="svg_9" points="45.00829058579393,12.310224104846586 45.00829058579393,12.310224104846586 " fill-opacity="null" stroke-opacity="null" stroke-width="null" stroke="#ffffff" fill="none"/>
 </g>
</svg>